<?xml version="1.0" encoding="UTF-8"?>
<svg xmlns:xodm="http://www.corel.com/coreldraw/odm/2003" xmlns="http://www.w3.org/2000/svg" xmlns:xlink="http://www.w3.org/1999/xlink" version="1.1" id="Layer_1" x="0px" y="0px" viewBox="0 0 2500 2500" style="enable-background:new 0 0 2500 2500;" xml:space="preserve">
<g id="Layer_x0020_1">
	<path d="M1936.9,837.1h-220.6c-25.1,0-50.2-10.7-68.2-30.3l-89.7-99.9c-26.9-28.5-69.9-32.1-100.4-5.3c-1.8,1.8-3.6,3.6-5.4,5.3   l-77.1,85.6c-25.1,28.5-61,44.6-98.6,44.6H66.3C32.3,937,9,1040.4,0,1145.7h1142.4c19.7,0,39.4-8.9,53.8-23.2l105.8-110.6   c12.6-14.3,32.3-21.4,50.2-21.4h3.6c19.7,0,39.5,8.9,53.8,23.2l89.7,99.9c16.1,19.6,41.2,30.3,68.2,30.3H2500   c-9-105.2-30.5-208.7-66.4-308.6h-496.8L1936.9,837.1L1936.9,837.1z M692.2,1793.1c19.7,0,39.5-8.9,53.8-23.2l105.8-110.6   c12.6-14.3,32.3-21.4,50.2-21.4h5.4c19.7,0,39.5,8.9,53.8,23.2l89.7,99.9c17.9,19.6,41.2,30.3,68.2,30.3l1264.3,0   c48.4-98.1,82.5-203.3,104-310.3l-1214.1,0c-25.1,0-50.2-10.7-66.3-30.3l-89.7-99.9c-12.6-14.3-32.3-23.2-53.8-23.2   c-19.7,0-39.4,8.9-52,23.2l-77.1,85.6c-25.1,28.5-61,44.6-100.4,44.6H19.7c19.7,107,55.6,212.2,102.2,312.1H692.2L692.2,1793.1z    M1588.9,500c19.7,0,39.5-8.9,53.8-23.2l105.8-110.6c12.6-14.3,32.3-21.4,50.2-21.4h5.4c19.7,0,39.5,8.9,52,23.2l89.7,99.9   c17.9,19.6,41.2,30.3,68.2,30.3h240.3C1838.2-52.9,1052.7-163.5,498.6,250.3c-95,71.3-179.3,153.4-249.3,247.9H1589L1588.9,500   L1588.9,500z M1104.7,2101.7H776.5c-25.1,0-50.2-10.7-66.3-30.3l-89.7-99.9c-26.9-28.5-71.7-32.1-100.4-5.3   c-1.8,1.8-3.6,3.6-5.4,5.3l-77.1,87.4c-25.1,28.5-61,44.6-98.6,44.6h-5.4c471.7,503,1266.1,531.5,1771.9,62.4   c21.5-19.6,43-41,62.8-62.4L1104.7,2101.7z"></path>
</g>
</svg>
