<svg width="16" height="17" viewBox="0 0 16 17" fill="none" xmlns="http://www.w3.org/2000/svg">
<g clip-path="url(#clip0_22_223)">
<path d="M8.0095 16.4747C12.3972 16.4747 15.9541 12.9108 15.9541 8.51449C15.9541 4.11823 12.3972 0.554321 8.0095 0.554321C3.62184 0.554321 0.0649414 4.11823 0.0649414 8.51449C0.0649414 12.9108 3.62184 16.4747 8.0095 16.4747Z" fill="#627EEA"/>
<path d="M8.25708 2.54329V6.95643L11.9797 8.62331L8.25708 2.54329Z" fill="white" fill-opacity="0.602"/>
<path d="M8.25695 2.54329L4.53442 8.62331L8.25695 6.95643V2.54329Z" fill="white"/>
<path d="M8.25708 11.4828V14.4814L11.9818 9.3175L8.25708 11.4828Z" fill="white" fill-opacity="0.602"/>
<path d="M8.25695 14.4814V11.4828L4.53442 9.3175L8.25695 14.4814Z" fill="white"/>
<path d="M8.25708 10.7886L11.9797 8.62331L8.25708 6.95644V10.7886Z" fill="white" fill-opacity="0.2"/>
<path d="M4.53442 8.62331L8.25695 10.7886V6.95644L4.53442 8.62331Z" fill="white" fill-opacity="0.602"/>
</g>
<defs>
<clipPath id="clip0_22_223">
<rect width="16" height="16" fill="white" transform="translate(0 0.5)"/>
</clipPath>
</defs>
</svg>
