<svg width="24" height="24" viewBox="0 0 24 24" xmlns="http://www.w3.org/2000/svg">
    <path fill-rule="evenodd" d="M6.7587 2H17.2413C18.0463 1.99999 18.7106 1.99998 19.2518 2.04419C19.8139 2.09012 20.3306 2.18868 20.816 2.43597C21.5686 2.81947 22.1805 3.43139 22.564 4.18404C22.8113 4.66937 22.9099 5.18608 22.9558 5.74817C23 6.28936 23 6.95372 23 7.75868V14.999C23 14.9997 23 15.0003 23 15.001V16.2413C23 17.0463 23 17.7106 22.9558 18.2518C22.9099 18.8139 22.8113 19.3306 22.564 19.816C22.1805 20.5686 21.5686 21.1805 20.816 21.564C20.3306 21.8113 19.8139 21.9099 19.2518 21.9558C18.7106 22 18.0463 22 17.2413 22H6.75868C5.95372 22 5.28936 22 4.74817 21.9558C4.18608 21.9099 3.66937 21.8113 3.18404 21.564C2.43139 21.1805 1.81947 20.5686 1.43597 19.816C1.18868 19.3306 1.09012 18.8139 1.04419 18.2518C0.999977 17.7106 0.999988 17.0463 1 16.2413V7.7587C0.999988 6.95373 0.999977 6.28937 1.04419 5.74817C1.09012 5.18608 1.18868 4.66937 1.43597 4.18404C1.81947 3.43139 2.43139 2.81947 3.18404 2.43597C3.66937 2.18868 4.18608 2.09012 4.74817 2.04419C5.28937 1.99998 5.95373 1.99999 6.7587 2ZM21 12.5858V7.8C21 6.94342 20.9992 6.36113 20.9624 5.91104C20.9266 5.47262 20.8617 5.24842 20.782 5.09202C20.5903 4.7157 20.2843 4.40973 19.908 4.21799C19.7516 4.1383 19.5274 4.07337 19.089 4.03755C18.6389 4.00078 18.0566 4 17.2 4H6.8C5.94342 4 5.36113 4.00078 4.91104 4.03755C4.47262 4.07337 4.24842 4.1383 4.09202 4.21799C3.7157 4.40973 3.40973 4.7157 3.21799 5.09202C3.1383 5.24842 3.07337 5.47262 3.03755 5.91104C3.00078 6.36113 3 6.94342 3 7.8V16.2C3 17.0566 3.00078 17.6389 3.03755 18.089C3.07337 18.5274 3.1383 18.7516 3.21799 18.908C3.37767 19.2214 3.61656 19.486 3.90934 19.6764L10.1841 13.4017C10.3625 13.2232 10.5363 13.0494 10.6955 12.9142C10.8704 12.7658 11.0923 12.6062 11.382 12.5121C11.7837 12.3816 12.2163 12.3816 12.618 12.5121C12.9078 12.6062 13.1296 12.7658 13.3045 12.9142C13.4637 13.0494 13.6375 13.2232 13.8159 13.4017L14 13.5858L16.1841 11.4017C16.3625 11.2232 16.5363 11.0494 16.6955 10.9142C16.8704 10.7658 17.0922 10.6062 17.382 10.5121C17.7837 10.3816 18.2163 10.3816 18.618 10.5121C18.9078 10.6062 19.1296 10.7658 19.3045 10.9142C19.4637 11.0494 19.6374 11.2232 19.8159 11.4016L21 12.5858ZM12.4243 14.8385C12.2146 14.6288 12.0993 14.5146 12.0101 14.4389C12.0066 14.4359 12.0032 14.4331 12 14.4304C11.9968 14.4331 11.9934 14.4359 11.9899 14.4389C11.9007 14.5146 11.7854 14.6288 11.5757 14.8385L6.41441 19.9998C6.53648 20 6.66483 20 6.8 20H17.2C17.3352 20 17.4635 20 17.5856 19.9998L12.4243 14.8385ZM20.0907 19.6764L15.4142 15L17.5757 12.8385C17.7854 12.6288 17.9007 12.5146 17.9899 12.4389C17.9934 12.4359 17.9968 12.4331 18 12.4304C18.0032 12.4331 18.0066 12.4359 18.0101 12.4389C18.0993 12.5146 18.2146 12.6288 18.4243 12.8385L21 15.4142V16.2C21 17.0566 20.9992 17.6389 20.9624 18.089C20.9266 18.5274 20.8617 18.7516 20.782 18.908C20.6223 19.2214 20.3834 19.486 20.0907 19.6764ZM8 8C7.44772 8 7 8.44772 7 9C7 9.55229 7.44772 10 8 10C8.55229 10 9 9.55229 9 9C9 8.44772 8.55229 8 8 8ZM5 9C5 7.34315 6.34315 6 8 6C9.65686 6 11 7.34315 11 9C11 10.6569 9.65686 12 8 12C6.34315 12 5 10.6569 5 9Z" fill="#667085"/>
</svg>
