<svg width="200" height="200" viewBox="0 0 200 200" fill="none" xmlns="http://www.w3.org/2000/svg">
<g clip-path="url(#clip0_1595_291)">
<path d="M199.803 0.295532H0.591064V199.507H199.803V0.295532Z" fill="#00EA75"/>
<path d="M39.5074 85.3201H31.7241V115.468H39.5074V85.3201Z" fill="white"/>
<path d="M76.1577 113.596C73.1035 115.271 68.67 116.059 62.7587 116.059C59.606 116.059 56.5518 115.763 53.5961 115.271C50.6405 114.778 47.9804 113.99 45.8129 113.103L46.7981 106.995C48.7685 108.079 51.1331 109.064 53.9902 109.754C56.8474 110.443 59.7045 110.837 62.6602 110.837C65.8129 110.837 68.3744 110.542 70.1478 109.852C71.9212 109.163 72.9065 108.276 72.9065 106.995C72.9065 105.123 71.1331 104.138 67.3892 103.842L60.7882 103.251C57.537 102.956 54.8769 102.562 52.8079 101.97C50.739 101.379 49.0641 100.493 47.7833 99.3103C46.404 98.0295 45.7144 96.3546 45.7144 94.1871C45.7144 91.1329 47.0937 88.8669 49.8523 87.1921C52.6109 85.6157 56.6503 84.729 61.9705 84.729C65.1232 84.729 68.1774 85.0246 71.1331 85.5172C74.0887 86.0098 76.6503 86.798 78.8178 87.6847L77.8326 93.793C75.8621 92.6108 73.4976 91.7241 70.739 91.0344C67.9804 90.3448 65.0247 90.0492 61.9705 90.0492C59.2119 90.0492 57.1429 90.3448 55.7636 91.0344C54.3843 91.7241 53.5961 92.5122 53.5961 93.6945C53.5961 94.7783 54.1873 95.5664 55.271 96.0591C56.3547 96.6502 58.1281 96.9457 60.5912 97.1428L67.4878 97.7339C76.3547 98.5221 80.7882 101.379 80.7882 106.502C80.6897 109.557 79.2119 111.921 76.1577 113.596Z" fill="white"/>
<path d="M129.852 115.468H123.054V91.8225L112.512 115.468H103.645L93.0048 91.8225V115.468H86.2068V85.3201H97.4383L108.079 108.965L118.621 85.3201H129.951V115.468H129.852Z" fill="white"/>
<path d="M168.769 90.6403H145.419V97.8324H167.586V102.956H145.419V110.049H168.769V115.468H137.635V85.3201H168.769V90.6403Z" fill="white"/>
</g>
<defs>
<clipPath id="clip0_1595_291">
<rect width="200" height="200" fill="white"/>
</clipPath>
</defs>
</svg>
