<svg width="203" height="94" viewBox="0 0 203 94" fill="none" xmlns="http://www.w3.org/2000/svg">
<g clip-path="url(#clip0_1595_291)">
<path d="M202.8 0.300049H0.600098V94H202.8V0.300049Z" fill="#00EA75"/>
<path d="M40.1 31.9H32.2V62.5H40.1V31.9Z" fill="white"/>
<path d="M77.2999 60.6001C74.1999 62.3001 69.6999 63.1001 63.6999 63.1001C60.4999 63.1001 57.3999 62.8 54.3999 62.3C51.3999 61.8 48.6999 61.0001 46.4999 60.1001L47.4999 53.9C49.4999 55 51.8999 56 54.7999 56.7C57.6999 57.4 60.5999 57.8 63.5999 57.8C66.7999 57.8 69.3999 57.5 71.1999 56.8C72.9999 56.1 73.9999 55.2 73.9999 53.9C73.9999 52 72.1999 51 68.3999 50.7L61.6999 50.1001C58.3999 49.8001 55.6999 49.4 53.5999 48.8C51.4999 48.2 49.7999 47.3001 48.4999 46.1001C47.0999 44.8001 46.3999 43.1 46.3999 40.9C46.3999 37.8 47.7999 35.5 50.5999 33.8C53.3999 32.2 57.4999 31.3 62.8999 31.3C66.0999 31.3 69.1999 31.6001 72.1999 32.1001C75.1999 32.6001 77.7999 33.4 79.9999 34.3L78.9999 40.5C76.9999 39.3 74.5999 38.4 71.7999 37.7C68.9999 37 65.9999 36.7 62.8999 36.7C60.0999 36.7 57.9999 37 56.5999 37.7C55.1999 38.4 54.3999 39.2 54.3999 40.4C54.3999 41.5 54.9999 42.3 56.0999 42.8C57.1999 43.4 58.9999 43.7 61.4999 43.9L68.4999 44.5C77.4999 45.3 81.9999 48.2 81.9999 53.4C81.8999 56.5 80.3999 58.9001 77.2999 60.6001Z" fill="white"/>
<path d="M131.8 62.5H124.9V38.5L114.2 62.5H105.2L94.4 38.5V62.5H87.5V31.9H98.9L109.7 55.9L120.4 31.9H131.9V62.5H131.8Z" fill="white"/>
<path d="M171.3 37.3H147.6V44.6H170.1V49.8H147.6V57H171.3V62.5H139.7V31.9H171.3V37.3Z" fill="white"/>
</g>
<defs>
<clipPath id="clip0_1595_291">
<rect width="203" height="94" fill="white"/>
</clipPath>
</defs>
</svg>