<?xml version="1.0" encoding="UTF-8"?>
<svg xmlns:xodm="http://www.corel.com/coreldraw/odm/2003" xmlns="http://www.w3.org/2000/svg" xmlns:xlink="http://www.w3.org/1999/xlink" version="1.1" id="Layer_1" x="0px" y="0px" viewBox="0 0 2500 2500" style="enable-background:new 0 0 2500 2500;" xml:space="preserve">
<style type="text/css">
	.st0{fill:#FF0420;}
	.st1{fill:#FFFFFF;}
</style>
<g id="Layer_x0020_1">
	<g id="_1995692876000">
		<path class="st0" d="M2500,1250C2500,560,1940,0,1250,0S0,560,0,1250s560,1250,1250,1250S2500,1940,2500,1250z"></path>
		<path class="st1" d="M886,1582c-75,0-136-18-183-53c-47-36-71-87-71-152c0-14,2-31,5-51c8-45,20-99,35-163c43-172,153-258,330-258    c48,0,92,8,130,25c38,16,68,40,90,72s33,69,33,113c0,13-2,30-5,50c-10,56-21,110-34,163c-22,86-60,150-114,193    c-54,42-126,63-216,63V1582z M900,1447c35,0,65-11,89-31c25-21,43-52,54-95c15-59,26-110,33-154c3-13,4-27,4-41c0-57-30-86-89-86    c-35,0-65,11-90,31c-25,21-42,52-53,95c-12,42-23,93-34,154c-3,13-4,26-4,40C809,1418,840,1447,900,1447z"></path>
		<path class="st1" d="M1297,1573c-7,0-12-2-16-7c-3-5-4-11-3-17l130-610c1-7,5-13,11-17c6-5,12-7,18-7h250c70,0,125,15,167,43    c43,29,64,71,64,125c0,16-2,32-6,49c-16,72-47,125-95,160c-47,35-112,52-194,52h-127l-43,206c-2,7-5,13-11,17c-6,5-12,7-18,7h-128    L1297,1573z M1629,1214c27,0,49-7,69-22s33-35,40-62c2-11,3-20,3-28c0-18-6-32-16-42c-11-10-29-15-55-15h-113l-36,168h108V1214z"></path>
	</g>
</g>
</svg>
