<?xml version="1.0" encoding="UTF-8"?>
<svg xmlns:xodm="http://www.corel.com/coreldraw/odm/2003" xmlns="http://www.w3.org/2000/svg" xmlns:xlink="http://www.w3.org/1999/xlink" version="1.1" id="Layer_1" x="0px" y="0px" width="16" height="16" viewBox="0 0 2500 2500" style="enable-background:new 0 0 2500 2500;" xml:space="preserve">
<style type="text/css">
	.st0{fill:none;}
	.st1{fill:url(#SVGID_1_);}
</style>
<g id="Layer_x0020_1">
	<g id="_2085790187168">
		<rect y="0" class="st0" width="2500" height="2500"></rect>
		
			<linearGradient id="SVGID_1_" gradientUnits="userSpaceOnUse" x1="205.4522" y1="72.1938" x2="2253.542" y2="2377.7439" gradientTransform="matrix(1 0 0 -1 0 2497.8899)">
			<stop offset="0" style="stop-color:#9945FF"></stop>
			<stop offset="7.843140e-02" style="stop-color:#9945FF"></stop>
			<stop offset="0.302" style="stop-color:#8752F3"></stop>
			<stop offset="0.502" style="stop-color:#5497D5"></stop>
			<stop offset="0.6" style="stop-color:#43B4CA"></stop>
			<stop offset="0.7216" style="stop-color:#28E0B9"></stop>
			<stop offset="0.9686" style="stop-color:#19FB9B"></stop>
			<stop offset="1" style="stop-color:#19FB9B"></stop>
		</linearGradient>
		<path class="st1" d="M2486.9,1894.9l-412.7,442.5c-8.9,9.6-19.7,17.3-31.8,22.5c-12,5.3-25,8-38.1,8H47.9    c-9.3,0-18.5-2.7-26.3-7.9c-7.8-5.1-13.9-12.4-17.7-20.9c-3.7-8.5-4.9-18-3.3-27.2c1.5-9.2,5.8-17.7,12.1-24.6L425,1844.8    c8.9-9.6,19.7-17.3,31.8-22.5c12-5.2,25-8,38.1-8h1956.4c9.4-0.2,18.7,2.4,26.6,7.5c7.9,5.1,14.2,12.3,18,21    c3.8,8.6,5,18.2,3.4,27.4C2497.7,1879.5,2493.4,1888.1,2486.9,1894.9L2486.9,1894.9z M2074.2,1003.6c-9-9.6-19.8-17.2-31.8-22.5    c-12-5.2-25-8-38.1-8.1H47.9c-9.3,0-18.5,2.7-26.3,7.8C13.9,986,7.7,993.3,4,1001.9c-3.7,8.5-4.9,18-3.3,27.2    c1.5,9.2,5.8,17.7,12.1,24.6L425,1496.4c9,9.6,19.8,17.2,31.8,22.4c12,5.2,25,8,38.1,8.1h1956.4c9.3-0.1,18.4-2.8,26.2-7.9    c7.8-5.1,13.9-12.4,17.6-20.9c3.7-8.6,4.8-18,3.3-27.2c-1.6-9.2-5.8-17.7-12.1-24.5L2074.2,1003.6L2074.2,1003.6z M47.9,685.7    h1956.4c13.1,0,26.1-2.7,38.1-8c12-5.2,22.8-12.9,31.8-22.5l412.7-442.5c6.5-6.8,10.8-15.4,12.4-24.7c1.6-9.3,0.4-18.8-3.4-27.4    c-3.8-8.6-10.1-15.9-18-21c-7.9-5.1-17.2-7.6-26.6-7.5H494.9c-13.1,0-26.1,2.7-38.1,8c-12,5.2-22.8,12.9-31.8,22.5L12.8,605.1    c-6.3,6.8-10.6,15.4-12.1,24.6c-1.6,9.2-0.4,18.7,3.3,27.2c3.7,8.5,9.9,15.8,17.7,20.9C29.5,683,38.6,685.7,47.9,685.7L47.9,685.7    L47.9,685.7z"></path>
	</g>
</g>
</svg>
