<svg width="143" height="38" viewBox="0 0 143 38" fill="none" xmlns="http://www.w3.org/2000/svg">
<path d="M49.0613 9.17979C49.0169 9.09046 48.9961 8.99132 49.0006 8.8917C49.0051 8.79208 49.035 8.69526 49.0872 8.61033C49.1395 8.5254 49.2125 8.45516 49.2994 8.40621C49.3863 8.35727 49.4842 8.33122 49.5839 8.33054H53.7648C53.8821 8.33289 53.9969 8.36389 54.0994 8.42082C54.2019 8.47776 54.2889 8.5589 54.3528 8.65717L59.579 20.2855L64.8052 8.65717C64.8587 8.56393 64.9344 8.48533 65.0256 8.42835C65.1167 8.37137 65.2206 8.33777 65.3278 8.33054H69.5741C69.6738 8.33122 69.7717 8.35727 69.8586 8.40621C69.9455 8.45516 70.0185 8.5254 70.0708 8.61033C70.1231 8.69526 70.1529 8.79208 70.1574 8.8917C70.1619 8.99132 70.1411 9.09046 70.0967 9.17979L60.6242 30.5419C60.5318 30.5834 60.4316 30.6048 60.3303 30.6048C60.2289 30.6048 60.1288 30.5834 60.0363 30.5419H59.7097C59.6272 30.5779 59.5383 30.5964 59.4484 30.5964C59.3584 30.5964 59.2695 30.5779 59.187 30.5419L49.0613 9.17979Z" fill="black"/>
<path d="M75.1924 8.91849C75.2086 8.75679 75.2846 8.60695 75.4054 8.49824C75.5262 8.38952 75.6831 8.32973 75.8457 8.33054H79.6347C79.7906 8.33054 79.9401 8.39249 80.0504 8.50275C80.1607 8.61301 80.2226 8.76256 80.2226 8.91849V29.954C80.2226 30.1099 80.1607 30.2594 80.0504 30.3697C79.9401 30.48 79.7906 30.5419 79.6347 30.5419H75.8457C75.6831 30.5427 75.5262 30.4829 75.4054 30.3742C75.2846 30.2655 75.2086 30.1157 75.1924 29.954V8.91849Z" fill="black"/>
<path d="M87.4087 8.59195C87.4249 8.43025 87.5009 8.28041 87.6217 8.1717C87.7425 8.06298 87.8994 8.00319 88.062 8.00401H88.8459L101.323 20.2203V8.91859C101.323 8.83556 101.34 8.75337 101.374 8.67741C101.407 8.60146 101.456 8.53348 101.518 8.47793C101.58 8.42239 101.653 8.38054 101.732 8.35516C101.811 8.32977 101.894 8.32141 101.977 8.33064H105.766C105.922 8.33064 106.071 8.39259 106.181 8.50285C106.292 8.61311 106.354 8.76266 106.354 8.91859V30.2807C106.354 30.4366 106.292 30.5862 106.181 30.6964C106.071 30.8067 105.922 30.8687 105.766 30.8687H105.243H104.851L92.5042 18.1298V29.9541C92.5042 30.11 92.4423 30.2595 92.332 30.3698C92.2218 30.4801 92.0722 30.542 91.9163 30.542H88.2579C88.102 30.542 87.9525 30.4801 87.8422 30.3698C87.7319 30.2595 87.67 30.11 87.67 29.9541L87.4087 8.59195Z" fill="black"/>
<path d="M123.796 8.00403C125.201 7.96536 126.6 8.20521 127.912 8.70976C129.223 9.21431 130.422 9.97358 131.439 10.9438C131.508 10.9989 131.563 11.0686 131.6 11.1477C131.638 11.2268 131.658 11.3134 131.658 11.4011C131.658 11.4888 131.638 11.5753 131.6 11.6544C131.563 11.7336 131.508 11.8032 131.439 11.8584L128.957 14.4061C128.908 14.4617 128.848 14.5063 128.78 14.5368C128.712 14.5673 128.639 14.5831 128.565 14.5831C128.491 14.5831 128.417 14.5673 128.35 14.5368C128.282 14.5063 128.222 14.4617 128.173 14.4061C126.99 13.3942 125.484 12.8382 123.927 12.8383C122.251 12.9221 120.672 13.6473 119.517 14.8634C118.362 16.0796 117.718 17.6936 117.721 19.371C117.721 21.1036 118.409 22.7653 119.634 23.9904C120.859 25.2155 122.521 25.9038 124.253 25.9038C125.798 25.8952 127.294 25.3658 128.5 24.4012C128.607 24.3048 128.747 24.2515 128.892 24.2515C129.036 24.2515 129.176 24.3048 129.284 24.4012L131.766 27.0797C131.823 27.1346 131.869 27.2005 131.9 27.2735C131.931 27.3464 131.947 27.425 131.947 27.5043C131.947 27.5837 131.931 27.6622 131.9 27.7352C131.869 27.8081 131.823 27.8741 131.766 27.9289C129.701 29.9278 126.931 31.0311 124.057 30.9993C122.556 30.9993 121.069 30.7036 119.682 30.1291C118.295 29.5546 117.035 28.7125 115.973 27.6509C114.912 26.5893 114.07 25.329 113.495 23.942C112.921 22.5549 112.625 21.0683 112.625 19.567C112.625 18.0657 112.921 16.5791 113.495 15.192C114.07 13.805 114.912 12.5447 115.973 11.4831C117.035 10.4215 118.295 9.57945 119.682 9.00492C121.069 8.43039 122.556 8.13469 124.057 8.13469L123.796 8.00403Z" fill="black"/>
<path d="M137.188 8.91849C137.204 8.75679 137.28 8.60695 137.401 8.49824C137.522 8.38952 137.679 8.32973 137.841 8.33054H141.63C141.786 8.33054 141.936 8.39249 142.046 8.50275C142.156 8.61301 142.218 8.76256 142.218 8.91849V29.954C142.218 30.1099 142.156 30.2594 142.046 30.3697C141.936 30.48 141.786 30.5419 141.63 30.5419H137.841C137.679 30.5427 137.522 30.4829 137.401 30.3742C137.28 30.2655 137.204 30.1157 137.188 29.954V8.91849Z" fill="black"/>
<path d="M36.238 9.52769L25.1898 28.4723L21.9858 23.7085L33.034 4.76385L30.2719 0H8.17563L5.52408 4.76385H27.6204L24.8584 9.52769H2.76204L0 14.2915L14.2521 38H19.7762L6.07649 14.2915H11.6006L22.6487 33.2362L25.3003 38L39 14.2915L36.238 9.52769ZM19.6657 19.0554L17.0142 14.4023H21.9858L19.6657 19.0554Z" fill="#F94432"/>
</svg>
