<svg width="114" height="19" viewBox="0 0 114 19" fill="none" xmlns="http://www.w3.org/2000/svg">
<path d="M14.984 18H11.624L4.016 6.504V18H0.656V1.224H4.016L11.624 12.744V1.224H14.984V18ZM28.6484 1.248V3.96H21.6644V8.256H27.0164V10.92H21.6644V18H18.3044V1.248H28.6484ZM42.431 1.248V3.96H37.967V18H34.607V3.96H30.143V1.248H42.431ZM44.5466 5.112C44.6266 3.512 45.1866 2.28 46.2266 1.416C47.2826 0.535999 48.6666 0.0959988 50.3786 0.0959988C51.5466 0.0959988 52.5466 0.303999 53.3786 0.719999C54.2106 1.12 54.8346 1.672 55.2506 2.376C55.6826 3.064 55.8986 3.848 55.8986 4.728C55.8986 5.736 55.6346 6.592 55.1066 7.296C54.5946 7.984 53.9786 8.448 53.2586 8.688V8.784C54.1866 9.072 54.9066 9.584 55.4186 10.32C55.9466 11.056 56.2106 12 56.2106 13.152C56.2106 14.112 55.9866 14.968 55.5386 15.72C55.1066 16.472 54.4586 17.064 53.5946 17.496C52.7466 17.912 51.7226 18.12 50.5226 18.12C48.7146 18.12 47.2426 17.664 46.1066 16.752C44.9706 15.84 44.3706 14.496 44.3066 12.72H47.5706C47.6026 13.504 47.8666 14.136 48.3626 14.616C48.8746 15.08 49.5706 15.312 50.4506 15.312C51.2666 15.312 51.8906 15.088 52.3226 14.64C52.7706 14.176 52.9946 13.584 52.9946 12.864C52.9946 11.904 52.6906 11.216 52.0826 10.8C51.4746 10.384 50.5306 10.176 49.2506 10.176H48.5546V7.416H49.2506C51.5226 7.416 52.6586 6.656 52.6586 5.136C52.6586 4.448 52.4506 3.912 52.0346 3.528C51.6346 3.144 51.0506 2.952 50.2826 2.952C49.5306 2.952 48.9466 3.16 48.5306 3.576C48.1306 3.976 47.8986 4.488 47.8346 5.112H44.5466ZM71.4658 6.432C71.4658 7.328 71.2498 8.168 70.8177 8.952C70.4018 9.736 69.7378 10.368 68.8258 10.848C67.9298 11.328 66.7938 11.568 65.4178 11.568H62.6098V18H59.2498V1.248H65.4178C66.7138 1.248 67.8178 1.472 68.7298 1.92C69.6418 2.368 70.3218 2.984 70.7698 3.768C71.2338 4.552 71.4658 5.44 71.4658 6.432ZM65.2738 8.856C66.2018 8.856 66.8898 8.648 67.3378 8.232C67.7858 7.8 68.0098 7.2 68.0098 6.432C68.0098 4.8 67.0978 3.984 65.2738 3.984H62.6098V8.856H65.2738ZM72.9873 11.304C72.9873 9.96 73.2513 8.768 73.7793 7.728C74.3233 6.688 75.0513 5.888 75.9633 5.328C76.8913 4.768 77.9233 4.488 79.0593 4.488C80.0513 4.488 80.9153 4.688 81.6513 5.088C82.4033 5.488 83.0033 5.992 83.4513 6.6V4.704H86.8353V18H83.4513V16.056C83.0193 16.68 82.4193 17.2 81.6513 17.616C80.8993 18.016 80.0273 18.216 79.0353 18.216C77.9153 18.216 76.8913 17.928 75.9633 17.352C75.0513 16.776 74.3233 15.968 73.7793 14.928C73.2513 13.872 72.9873 12.664 72.9873 11.304ZM83.4513 11.352C83.4513 10.536 83.2913 9.84 82.9713 9.264C82.6513 8.672 82.2193 8.224 81.6753 7.92C81.1313 7.6 80.5473 7.44 79.9233 7.44C79.2993 7.44 78.7233 7.592 78.1953 7.896C77.6673 8.2 77.2353 8.648 76.8993 9.24C76.5793 9.816 76.4193 10.504 76.4193 11.304C76.4193 12.104 76.5793 12.808 76.8993 13.416C77.2353 14.008 77.6673 14.464 78.1953 14.784C78.7393 15.104 79.3153 15.264 79.9233 15.264C80.5473 15.264 81.1313 15.112 81.6753 14.808C82.2193 14.488 82.6513 14.04 82.9713 13.464C83.2913 12.872 83.4513 12.168 83.4513 11.352ZM95.2049 18.216C94.1169 18.216 93.1409 18.024 92.2769 17.64C91.4129 17.24 90.7249 16.704 90.2129 16.032C89.7169 15.36 89.4449 14.616 89.3969 13.8H92.7809C92.8449 14.312 93.0929 14.736 93.5249 15.072C93.9729 15.408 94.5249 15.576 95.1809 15.576C95.8209 15.576 96.3169 15.448 96.6689 15.192C97.0369 14.936 97.2209 14.608 97.2209 14.208C97.2209 13.776 96.9969 13.456 96.5489 13.248C96.1169 13.024 95.4209 12.784 94.4609 12.528C93.4689 12.288 92.6529 12.04 92.0129 11.784C91.3889 11.528 90.8449 11.136 90.3809 10.608C89.9329 10.08 89.7089 9.368 89.7089 8.472C89.7089 7.736 89.9169 7.064 90.3329 6.456C90.7649 5.848 91.3729 5.368 92.1569 5.016C92.9569 4.664 93.8929 4.488 94.9649 4.488C96.5489 4.488 97.8129 4.888 98.7569 5.688C99.7009 6.472 100.221 7.536 100.317 8.88H97.1009C97.0529 8.352 96.8289 7.936 96.4289 7.632C96.0449 7.312 95.5249 7.152 94.8689 7.152C94.2609 7.152 93.7889 7.264 93.4529 7.488C93.1329 7.712 92.9729 8.024 92.9729 8.424C92.9729 8.872 93.1969 9.216 93.6449 9.456C94.0929 9.68 94.7889 9.912 95.7329 10.152C96.6929 10.392 97.4849 10.64 98.1089 10.896C98.7329 11.152 99.2689 11.552 99.7169 12.096C100.181 12.624 100.421 13.328 100.437 14.208C100.437 14.976 100.221 15.664 99.7889 16.272C99.3729 16.88 98.7649 17.36 97.9649 17.712C97.1809 18.048 96.2609 18.216 95.2049 18.216ZM108.283 18.216C107.195 18.216 106.219 18.024 105.355 17.64C104.491 17.24 103.803 16.704 103.291 16.032C102.795 15.36 102.523 14.616 102.475 13.8H105.859C105.923 14.312 106.171 14.736 106.603 15.072C107.051 15.408 107.603 15.576 108.259 15.576C108.899 15.576 109.395 15.448 109.747 15.192C110.115 14.936 110.299 14.608 110.299 14.208C110.299 13.776 110.075 13.456 109.627 13.248C109.195 13.024 108.499 12.784 107.539 12.528C106.547 12.288 105.731 12.04 105.091 11.784C104.467 11.528 103.923 11.136 103.459 10.608C103.011 10.08 102.787 9.368 102.787 8.472C102.787 7.736 102.995 7.064 103.411 6.456C103.843 5.848 104.451 5.368 105.235 5.016C106.035 4.664 106.971 4.488 108.043 4.488C109.627 4.488 110.891 4.888 111.835 5.688C112.779 6.472 113.299 7.536 113.395 8.88H110.179C110.131 8.352 109.907 7.936 109.507 7.632C109.123 7.312 108.603 7.152 107.947 7.152C107.339 7.152 106.867 7.264 106.531 7.488C106.211 7.712 106.051 8.024 106.051 8.424C106.051 8.872 106.275 9.216 106.723 9.456C107.171 9.68 107.867 9.912 108.811 10.152C109.771 10.392 110.563 10.64 111.187 10.896C111.811 11.152 112.347 11.552 112.795 12.096C113.259 12.624 113.499 13.328 113.515 14.208C113.515 14.976 113.299 15.664 112.867 16.272C112.451 16.88 111.843 17.36 111.043 17.712C110.259 18.048 109.339 18.216 108.283 18.216Z" fill="#BBBBBB"/>
</svg>
