<svg width="124" height="24" viewBox="0 0 124 24" fill="none" xmlns="http://www.w3.org/2000/svg">
<g clip-path="url(#clip0_548_290)">
<path d="M21.4565 6.41426C21.4285 5.9526 21.1609 5.53681 20.7455 5.31668L11.1911 0.255277C10.8084 0.0534935 10.3478 0.0596082 9.97131 0.272092L4.46055 3.39821C4.06537 3.62292 4.08248 4.19005 4.49167 4.39031L5.55741 4.98037C5.72233 5.06139 5.91837 5.05833 6.08173 4.97273L10.0413 2.89986C10.2156 2.80967 10.4241 2.81273 10.5952 2.90904L12.1868 3.80789C12.3486 3.89961 12.3486 4.12891 12.1868 4.22063L10.2903 5.29834C9.91842 5.50929 9.90597 6.03362 10.2685 6.25986L11.1553 6.7842C11.3358 6.89732 11.5645 6.9019 11.7496 6.79642L14.365 5.30598C14.5361 5.20967 14.7446 5.20509 14.9189 5.29528L16.8512 6.29808C17.0488 6.4005 17.0535 6.67719 16.8605 6.78572L10.9001 10.1671C10.7197 10.2695 10.4972 10.268 10.3198 10.1625L1.29909 4.95286C0.91636 4.72814 0.430939 4.99872 0.432495 5.43744L0.435607 7.24279C0.435607 7.43999 0.541403 7.62343 0.714101 7.72432L8.95691 12.4769C9.12961 12.5778 9.23541 12.7628 9.23541 12.96V17.9771C9.23541 18.1773 8.97558 18.2629 8.85267 18.1009L2.55154 9.7391C2.07546 9.10623 1.10773 8.98088 0.4605 9.61528C0.219346 9.85222 0.0964355 10.1824 0.0964355 10.5172V19.7014C0.0964355 19.9062 0.210011 20.0958 0.393599 20.1951L1.96966 21.0451C2.35084 21.2515 2.81759 20.9794 2.81759 20.5513V15.6397C2.81759 15.305 3.25167 15.1643 3.45392 15.4334L9.4999 23.4573C9.76128 23.8043 10.1705 23.9985 10.5936 23.9985C11.0573 23.9985 11.5396 23.7646 11.8508 23.2433C11.9192 23.1287 11.955 22.9957 11.955 22.8627C11.955 22.8627 11.955 19.9918 11.955 18.9462C11.955 18.7139 12.081 18.4999 12.2864 18.3837L16.5649 15.9776C16.9523 15.7574 17.1904 15.3508 17.1873 14.9121L17.1779 13.5149C17.1748 13.0838 16.6987 12.8148 16.3191 13.0303L12.8154 14.9977C12.4326 15.2148 11.9566 14.9427 11.9566 14.5101V12.9783C11.9566 12.7766 12.0655 12.5916 12.2428 12.4907L18.3137 9.04661C18.5004 8.94114 18.7353 9.0726 18.7353 9.28509V20.5483C18.7353 20.9763 19.2021 21.2484 19.5833 21.042L21.1593 20.1921C21.3429 20.0927 21.4565 19.9047 21.4565 19.6983V6.40967L21.4534 6.41273L21.4565 6.41426Z" fill="#BBBBBB"/>
<path d="M67.4547 3.75592H59.2882H47.5945H36.5605C36.2338 3.75592 35.9693 4.0158 35.9693 4.33681V13.4813C35.9693 13.7518 35.6084 13.8512 35.4652 13.6204L29.4722 4.01121C29.3726 3.85223 29.1968 3.75439 29.0054 3.75439H26.527C26.2251 3.75439 25.9793 3.9944 25.9793 4.29248V19.8803C25.9793 20.1768 26.2236 20.4183 26.527 20.4183H28.6133C28.9152 20.4183 29.161 20.1783 29.161 19.8803V10.5493C29.161 10.2634 29.5422 10.158 29.6946 10.401L35.764 20.0484C35.9086 20.2792 36.1638 20.4183 36.4392 20.4183H38.7807C39.1401 20.4183 39.4326 20.131 39.4326 19.7778V13.8757C39.4326 13.5791 39.6769 13.3376 39.9803 13.3376H45.9267C46.2285 13.3376 46.4743 13.0976 46.4743 12.7995V11.0553C46.4743 10.7587 46.2301 10.5172 45.9267 10.5172H39.9803C39.6784 10.5172 39.4326 10.2772 39.4326 9.97911V7.10981C39.4326 6.81325 39.6769 6.57172 39.9803 6.57172H49.8972C50.199 6.57172 50.4448 6.81172 50.4448 7.10981V19.8787C50.4448 20.1753 50.6891 20.4168 50.9925 20.4168H53.3231C53.6249 20.4168 53.8708 20.1768 53.8708 19.8787V7.10981C53.8708 6.81325 54.115 6.57172 54.4184 6.57172H58.5429H61.8833H66.9118C67.2136 6.57172 67.4594 6.81172 67.4594 7.10981V10.2359C67.4594 10.479 67.2587 10.6762 67.0113 10.6762H62.431C62.1291 10.6762 61.8833 10.9162 61.8833 11.2143V12.9585C61.8833 13.255 62.1276 13.4966 62.431 13.4966H66.9118C67.2136 13.4966 67.4594 13.7366 67.4594 14.0347V17.0629C67.4594 17.3595 67.2151 17.601 66.9118 17.601H58.9132C58.6114 17.601 58.3656 17.841 58.3656 18.1391V19.8833C58.3656 20.1799 58.6098 20.4214 58.9132 20.4214H69.7807C70.0826 20.4214 70.3284 20.1814 70.3284 19.8833V4.22522C70.3284 3.96688 70.1152 3.75745 69.8523 3.75745H67.4594L67.4547 3.75592Z" fill="#BBBBBB"/>
<path d="M74.7905 3.72534H82.4048C86.6382 3.72534 88.2454 6.35006 88.2454 9.04662C88.2454 11.7432 86.6367 14.3679 82.4048 14.3679H78.5027V20.3159H74.7905V3.72687V3.72534ZM78.5027 11.5322H81.3873C83.0893 11.5322 84.6514 11.1608 84.6514 9.04662C84.6514 6.93248 83.0909 6.56101 81.3873 6.56101H78.5027V11.5338V11.5322Z" fill="#BBBBBB"/>
<path d="M88.6484 11.9969C88.8382 8.93044 91.6511 7.97809 94.3941 7.97809C96.8305 7.97809 99.7617 8.51312 99.7617 11.3931V17.6438C99.7617 18.7353 99.8799 19.8283 100.188 20.3159H96.7823C96.664 19.9445 96.5691 19.5485 96.5458 19.1541C95.4816 20.2456 93.9444 20.6415 92.4306 20.6415C90.0891 20.6415 88.2687 19.5027 88.2687 17.04C88.3154 11.5796 96.5458 14.507 96.4042 11.812C96.4042 10.4178 95.4116 10.1855 94.2291 10.1855C92.9285 10.1855 92.1241 10.6961 92.0058 11.9985H88.6484V11.9969ZM96.4042 14.4367C95.8363 14.9243 94.6539 14.9473 93.613 15.1338C92.5722 15.3203 91.6262 15.6917 91.6262 16.8994C91.6262 18.107 92.5955 18.4326 93.683 18.4326C96.3077 18.4326 96.4026 16.4117 96.4026 15.6673V14.4352L96.4042 14.4367Z" fill="#BBBBBB"/>
<path d="M104.02 16.4117C104.02 17.8288 105.297 18.4326 106.598 18.4326C107.544 18.4326 108.798 18.0611 108.798 16.8994C108.798 15.8996 107.379 15.5282 104.991 15.0405C103.027 14.5987 101.112 13.972 101.112 11.8334C101.112 8.76688 103.808 7.97656 106.433 7.97656C109.058 7.97656 111.564 8.86013 111.824 11.8104H108.631C108.537 10.5325 107.544 10.184 106.338 10.184C105.582 10.184 104.47 10.3001 104.47 11.2983C104.47 12.4831 106.385 12.6466 108.277 13.0869C110.24 13.5287 112.155 14.2257 112.155 16.4561C112.155 19.6158 109.341 20.6385 106.575 20.6385C103.808 20.6385 100.947 19.5929 100.829 16.4102H104.022L104.02 16.4117Z" fill="#BBBBBB"/>
<path d="M115.773 16.4117C115.773 17.8288 117.05 18.4326 118.351 18.4326C119.297 18.4326 120.551 18.0611 120.551 16.8994C120.551 15.8996 119.132 15.5282 116.744 15.0405C114.78 14.5987 112.865 13.972 112.865 11.8334C112.865 8.76688 115.561 7.97656 118.186 7.97656C120.811 7.97656 123.317 8.86013 123.577 11.8104H120.384C120.289 10.5325 119.297 10.184 118.091 10.184C117.335 10.184 116.222 10.3001 116.222 11.2983C116.222 12.4831 118.138 12.6466 120.03 13.0869C121.993 13.5287 123.908 14.2257 123.908 16.4561C123.908 19.6158 121.094 20.6385 118.327 20.6385C115.561 20.6385 112.7 19.5929 112.582 16.4102H115.774L115.773 16.4117Z" fill="#BBBBBB"/>
</g>
<defs>
<clipPath id="clip0_548_290">
<rect width="124" height="24" fill="white"/>
</clipPath>
</defs>
</svg>
