<svg width="278" height="64" viewBox="0 0 278 64" fill="none" xmlns="http://www.w3.org/2000/svg">
<g clip-path="url(#clip0_1595_281)">
<path d="M0.0600586 1.41003H15.8801V62.54H0.0600586V1.41003V1.41003Z" fill="#BBBBBB"/>
<path d="M28.62 57.81L30.62 45.36C34.6 47.63 39.45 49.47 45.18 50.86C50.91 52.25 56.76 52.95 62.72 52.95C69.2 52.95 74.29 52.28 77.98 50.95C81.67 49.61 83.52 47.65 83.52 45.07C83.52 41.35 79.82 39.23 72.43 38.72L58.96 37.57C52.31 37.03 46.92 36.19 42.78 35.06C38.65 33.92 35.28 32.15 32.7 29.73C29.97 27.17 28.61 23.68 28.61 19.24C28.61 13.1 31.39 8.38002 36.95 5.09002C42.51 1.79002 50.73 0.150024 61.61 0.150024C68.03 0.150024 74.23 0.680026 80.2 1.73003C86.17 2.78003 91.36 4.26003 95.76 6.16003L93.71 18.65C89.7 16.23 84.88 14.37 79.24 13.04C73.6 11.72 67.64 11.06 61.36 11.06C55.82 11.06 51.59 11.7 48.68 12.98C45.77 14.26 44.31 16.06 44.31 18.39C44.31 20.49 45.45 22.11 47.72 23.25C49.99 24.39 53.57 25.15 58.46 25.55L72.53 26.74C90.46 28.25 99.43 34.16 99.43 44.47C99.43 50.67 96.35 55.45 90.2 58.82C84.05 62.19 75.01 63.87 63.11 63.87C56.69 63.87 50.47 63.34 44.46 62.29C38.45 61.24 33.17 59.75 28.62 57.81V57.81Z" fill="#BBBBBB"/>
<path d="M110.65 1.41003H133.46L154.95 49.46L176.31 1.41003H199.2V62.54H185.39V14.62L163.95 62.54H145.96L124.47 14.62V62.54H110.66V1.41003H110.65Z" fill="#BBBBBB"/>
<path d="M214.88 1.41003H277.93V12.32H230.69V26.81H275.58V37.13H230.69V51.62H277.93V62.53H214.88V1.40002V1.41003Z" fill="#BBBBBB"/>
</g>
<defs>
<clipPath id="clip0_1595_281">
<rect width="278" height="64" fill="white"/>
</clipPath>
</defs>
</svg>
