<svg width="24" height="24" viewBox="0 0 24 24" xmlns="http://www.w3.org/2000/svg">
    <path d="M2 12C2 6.47715 6.47715 2 12 2C17.5228 2 22 6.47715 22 12C22 17.5228 17.5228 22 12 22C10.6717 22 9.4015 21.7405 8.23921 21.2684C8.13423 21.2258 8.07362 21.2013 8.02887 21.1845C8.02358 21.1825 8.01898 21.1808 8.01505 21.1794C8.01356 21.1796 8.01198 21.1798 8.01029 21.18C7.97339 21.185 7.92309 21.1933 7.82705 21.2093L4.26916 21.8023C4.25966 21.8039 4.25008 21.8055 4.24044 21.8071C4.07981 21.8339 3.90011 21.8639 3.74404 21.8757C3.57386 21.8885 3.30312 21.893 3.017 21.7703C2.66329 21.6186 2.38144 21.3367 2.22973 20.983C2.10701 20.6969 2.11148 20.4261 2.12433 20.256C2.13611 20.0999 2.16612 19.9202 2.19294 19.7596C2.19455 19.7499 2.19615 19.7403 2.19773 19.7308L2.79071 16.173C2.80672 16.0769 2.815 16.0266 2.82 15.9897C2.82023 15.988 2.82044 15.9864 2.82063 15.9849C2.8192 15.981 2.81751 15.9764 2.81552 15.9711C2.79872 15.9264 2.77419 15.8658 2.73156 15.7608C2.25952 14.5985 2 13.3283 2 12ZM12 4C7.58172 4 4 7.58172 4 12C4 13.066 4.20795 14.0809 4.58457 15.0082C4.59052 15.0229 4.59665 15.0379 4.6029 15.0532C4.66396 15.2027 4.73657 15.3805 4.77378 15.5466C4.80759 15.6974 4.82219 15.8292 4.82221 15.9837C4.82223 16.1534 4.79331 16.3248 4.76998 16.4632C4.76776 16.4764 4.76559 16.4892 4.7635 16.5017L4.21655 19.7834L7.49825 19.2365C7.51078 19.2344 7.52365 19.2322 7.53681 19.23C7.67516 19.2067 7.84665 19.1778 8.01626 19.1778C8.17082 19.1778 8.30263 19.1924 8.45344 19.2262C8.61947 19.2634 8.79728 19.336 8.94681 19.3971C8.96211 19.4034 8.97711 19.4095 8.99177 19.4154C9.91911 19.792 10.934 20 12 20C16.4183 20 20 16.4183 20 12C20 7.58172 16.4183 4 12 4ZM7 9.5C7 8.94772 7.44772 8.5 8 8.5H12C12.5523 8.5 13 8.94772 13 9.5C13 10.0523 12.5523 10.5 12 10.5H8C7.44772 10.5 7 10.0523 7 9.5ZM7 13C7 12.4477 7.44772 12 8 12H15C15.5523 12 16 12.4477 16 13C16 13.5523 15.5523 14 15 14H8C7.44772 14 7 13.5523 7 13Z" fill="#00A3FF"/>
</svg>
