<svg width="105" height="46" viewBox="0 0 105 46" fill="none" xmlns="http://www.w3.org/2000/svg">
<path d="M39.6182 12.567C39.5681 11.7166 39.0835 10.9506 38.33 10.5441L21.0438 1.22411C20.3528 0.852055 19.518 0.864561 18.8365 1.25537L8.863 7.01434C8.14703 7.42704 8.1783 8.47128 8.91927 8.84021L10.8483 9.92509C11.1485 10.0752 11.5017 10.0689 11.7956 9.91259L18.9584 6.09516C19.2742 5.92633 19.6525 5.93258 19.962 6.11079L22.8415 7.7647C23.1354 7.93353 23.1354 8.3556 22.8415 8.52443L19.4086 10.5097C18.7364 10.9006 18.7145 11.8635 19.3711 12.2825L20.9781 13.2485C21.3033 13.4549 21.7191 13.4643 22.0536 13.2704L26.784 10.5254C27.0935 10.3472 27.4718 10.3409 27.7876 10.5066L31.283 12.3512C31.6394 12.5388 31.6488 13.0484 31.2986 13.2517L20.5154 19.4765C20.1902 19.6641 19.7869 19.6609 19.4649 19.4671L3.14154 9.87194C2.45059 9.45925 1.57205 9.95636 1.57205 10.763L1.5783 14.0864C1.5783 14.4491 1.76902 14.7868 2.08167 14.9744L16.9981 23.7285C17.3107 23.9161 17.5015 24.2537 17.5015 24.6195V33.8583C17.5015 34.2272 17.0294 34.3835 16.8105 34.0865L5.40824 18.6855C4.54533 17.5193 2.79763 17.2879 1.6252 18.4573C1.18749 18.8918 0.965515 19.5015 0.965515 20.1174V37.0317C0.965515 37.41 1.17186 37.7601 1.50327 37.9415L4.35462 39.5047C5.04557 39.883 5.88972 39.3828 5.88972 38.5949V29.55C5.88972 28.9341 6.67446 28.6746 7.04339 29.1686L17.9829 43.9443C18.455 44.5821 19.196 44.9416 19.962 44.9416C20.7999 44.9416 21.6753 44.5102 22.2349 43.5504C22.36 43.3378 22.4225 43.0939 22.4225 42.85C22.4225 42.85 22.4225 37.5632 22.4225 35.6372C22.4225 35.2089 22.6508 34.815 23.0228 34.6024L30.764 30.1722C31.4643 29.7688 31.8958 29.0185 31.8895 28.2087L31.8739 25.6356C31.8676 24.8415 31.0078 24.3475 30.32 24.7446L23.9795 28.3682C23.2886 28.7652 22.4257 28.2681 22.4257 27.4709V24.6508C22.4257 24.2819 22.6226 23.938 22.9447 23.7535L33.9311 17.4099C34.2688 17.2129 34.694 17.4599 34.694 17.8507V38.5949C34.694 39.3828 35.5381 39.883 36.2291 39.5047L39.0804 37.9415C39.4118 37.7601 39.6182 37.41 39.6182 37.0317V12.5576H39.6119L39.6182 12.567Z" fill="#85EDC7"/>
<path d="M93.6312 1.03651H84.2236H70.7517H58.0394C57.6642 1.03651 57.3578 1.34291 57.3578 1.71809V12.4388C57.3578 12.7546 56.942 12.8734 56.7763 12.6014L49.8699 1.33353C49.7542 1.14594 49.551 1.03339 49.3322 1.03339H46.4777C46.1306 1.03339 45.8461 1.31477 45.8461 1.66494V19.9423C45.8461 20.2894 46.1275 20.5739 46.4777 20.5739H48.8819C49.229 20.5739 49.5135 20.2925 49.5135 19.9423V8.99965C49.5135 8.66512 49.9512 8.54006 50.1294 8.82457L57.1233 20.1362C57.289 20.405 57.5861 20.5707 57.9018 20.5707H60.6C61.0158 20.5707 61.3503 20.2331 61.3503 19.8204V12.8984C61.3503 12.5513 61.6317 12.2668 61.9819 12.2668H68.832C69.179 12.2668 69.4635 11.9854 69.4635 11.6353V9.59056C69.4635 9.24352 69.1822 8.95901 68.832 8.95901H61.9819C61.6348 8.95901 61.3503 8.67763 61.3503 8.32746V4.96337C61.3503 4.61633 61.6317 4.33182 61.9819 4.33182H73.406C73.7531 4.33182 74.0376 4.6132 74.0376 4.96337V19.9361C74.0376 20.2831 74.319 20.5676 74.6691 20.5676H77.3548C77.7018 20.5676 77.9863 20.2862 77.9863 19.9361V4.96337C77.9863 4.61633 78.2677 4.33182 78.6179 4.33182H83.3701H87.2188H93.0122C93.3592 4.33182 93.6437 4.6132 93.6437 4.96337V8.6276C93.6437 8.91211 93.4124 9.14347 93.1279 9.14347H87.8504C87.5033 9.14347 87.2188 9.42485 87.2188 9.77502V11.8197C87.2188 12.1668 87.5002 12.4513 87.8504 12.4513H93.0122C93.3592 12.4513 93.6437 12.7327 93.6437 13.0828V16.6345C93.6437 16.9815 93.3623 17.2661 93.0122 17.2661H83.7953C83.4483 17.2661 83.1638 17.5474 83.1638 17.8976V19.9423C83.1638 20.2894 83.4452 20.5739 83.7953 20.5739H96.3169C96.6639 20.5739 96.9484 20.2925 96.9484 19.9423V1.58365C96.9484 1.28038 96.7045 1.03651 96.4013 1.03651H93.6437H93.6312Z" fill="#85EDC7"/>
<path d="M45.7992 24.8384H54.5721C59.4494 24.8384 61.3003 27.918 61.3003 31.0757C61.3003 34.2335 59.4463 37.313 54.5721 37.313H50.0762V44.2882H45.7992V24.8353V24.8384ZM50.0762 33.9927H53.3997C55.36 33.9927 57.1608 33.5581 57.1608 31.0788C57.1608 28.5995 55.3631 28.165 53.3997 28.165H50.0762V33.9958V33.9927Z" fill="#E0643A"/>
<path d="M61.763 34.5367C61.9818 30.9413 65.224 29.822 68.3817 29.822C71.1893 29.822 74.5659 30.4473 74.5659 33.827V41.1555C74.5659 42.4374 74.7035 43.7161 75.0567 44.2882H71.133C70.9955 43.8536 70.8892 43.3878 70.861 42.9251C69.6354 44.2069 67.8627 44.6697 66.1213 44.6697C63.4231 44.6697 61.3253 43.3347 61.3253 40.4458C61.3784 34.0428 70.861 37.4756 70.6984 34.3148C70.6984 32.6796 69.5541 32.4076 68.191 32.4076C66.6934 32.4076 65.7649 33.0079 65.6304 34.5336H61.763V34.5367ZM70.6984 37.3975C70.045 37.9696 68.6819 37.9978 67.4844 38.2135C66.287 38.4323 65.1958 38.8669 65.1958 40.2832C65.1958 41.6995 66.312 42.0809 67.5657 42.0809C70.589 42.0809 70.6984 39.7111 70.6984 38.8388V37.3943V37.3975Z" fill="#E0643A"/>
<path d="M79.4745 39.7142C79.4745 41.3775 80.9471 42.0841 82.4447 42.0841C83.5358 42.0841 84.9771 41.6495 84.9771 40.2863C84.9771 39.1139 83.342 38.6793 80.5907 38.1072C78.3302 37.5882 76.1229 36.8535 76.1229 34.346C76.1229 30.7506 79.2275 29.8251 82.2539 29.8251C85.2804 29.8251 88.1661 30.86 88.4663 34.321H84.7895C84.6801 32.8234 83.5358 32.4139 82.1476 32.4139C81.2753 32.4139 79.9966 32.5514 79.9966 33.7207C79.9966 35.1089 82.2039 35.2996 84.3831 35.8186C86.6435 36.3376 88.8508 37.1536 88.8508 39.7705C88.8508 43.4753 85.6086 44.6728 82.4228 44.6728C79.2369 44.6728 75.9385 43.4472 75.804 39.7142H79.4807H79.4745Z" fill="#E0643A"/>
<path d="M93.0122 39.7142C93.0122 41.3775 94.4847 42.0841 95.9823 42.0841C97.0735 42.0841 98.5148 41.6495 98.5148 40.2863C98.5148 39.1139 96.8796 38.6793 94.1283 38.1072C91.8679 37.5882 89.6606 36.8535 89.6606 34.346C89.6606 30.7506 92.7652 29.8251 95.7916 29.8251C98.818 29.8251 101.704 30.86 102.004 34.321H98.3272C98.2177 32.8234 97.0735 32.4139 95.6853 32.4139C94.813 32.4139 93.5343 32.5514 93.5343 33.7207C93.5343 35.1089 95.7416 35.2996 97.9207 35.8186C100.181 36.3376 102.388 37.1536 102.388 39.7705C102.388 43.4753 99.1463 44.6728 95.9604 44.6728C92.7746 44.6728 89.4761 43.4472 89.3417 39.7142H93.0184H93.0122Z" fill="#E0643A"/>
</svg>
