<svg width="105" height="46" viewBox="0 0 105 46" fill="none" xmlns="http://www.w3.org/2000/svg">
<path d="M39.6182 12.5669C39.5681 11.7165 39.0835 10.9505 38.33 10.5441L21.0438 1.22405C20.3528 0.851994 19.518 0.8645 18.8365 1.25531L8.863 7.01428C8.14703 7.42698 8.1783 8.47122 8.91927 8.84015L10.8483 9.92503C11.1485 10.0751 11.5017 10.0689 11.7956 9.91253L18.9584 6.0951C19.2742 5.92627 19.6525 5.93252 19.962 6.11073L22.8415 7.76464C23.1354 7.93347 23.1354 8.35554 22.8415 8.52437L19.4086 10.5097C18.7364 10.9005 18.7145 11.8634 19.3711 12.2824L20.9781 13.2485C21.3033 13.4548 21.7191 13.4642 22.0536 13.2704L26.784 10.5253C27.0935 10.3471 27.4718 10.3409 27.7876 10.5066L31.283 12.3512C31.6394 12.5388 31.6488 13.0484 31.2986 13.2516L20.5154 19.4764C20.1902 19.664 19.7869 19.6609 19.4649 19.467L3.14154 9.87188C2.45059 9.45919 1.57205 9.9563 1.57205 10.7629L1.5783 14.0864C1.5783 14.449 1.76902 14.7867 2.08167 14.9743L16.9981 23.7284C17.3107 23.916 17.5015 24.2537 17.5015 24.6195V33.8582C17.5015 34.2271 17.0294 34.3835 16.8105 34.0865L5.40824 18.6854C4.54533 17.5192 2.79763 17.2879 1.6252 18.4572C1.18749 18.8918 0.965515 19.5014 0.965515 20.1173V37.0316C0.965515 37.4099 1.17186 37.7601 1.50327 37.9414L4.35462 39.5046C5.04557 39.8829 5.88972 39.3827 5.88972 38.5948V29.5499C5.88972 28.934 6.67446 28.6745 7.04339 29.1685L17.9829 43.9442C18.455 44.582 19.196 44.9416 19.962 44.9416C20.7999 44.9416 21.6753 44.5101 22.2349 43.5503C22.36 43.3377 22.4225 43.0938 22.4225 42.85C22.4225 42.85 22.4225 37.5631 22.4225 35.6372C22.4225 35.2089 22.6508 34.8149 23.0228 34.6023L30.764 30.1721C31.4643 29.7688 31.8958 29.0184 31.8895 28.2087L31.8739 25.6356C31.8676 24.8415 31.0078 24.3475 30.32 24.7445L23.9795 28.3681C23.2886 28.7652 22.4257 28.2681 22.4257 27.4708V24.6507C22.4257 24.2818 22.6226 23.9379 22.9447 23.7534L33.9311 17.4098C34.2688 17.2129 34.694 17.4598 34.694 17.8507V38.5948C34.694 39.3827 35.5381 39.8829 36.2291 39.5046L39.0804 37.9414C39.4118 37.7601 39.6182 37.4099 39.6182 37.0316V12.5575H39.6119L39.6182 12.5669Z" fill="#85EDC7"/>
<path d="M93.6312 1.03645H84.2236H70.7517H58.0394C57.6642 1.03645 57.3578 1.34285 57.3578 1.71802V12.4387C57.3578 12.7545 56.942 12.8733 56.7763 12.6013L49.8699 1.33347C49.7542 1.14588 49.551 1.03333 49.3322 1.03333H46.4777C46.1306 1.03333 45.8461 1.31471 45.8461 1.66488V19.9423C45.8461 20.2893 46.1275 20.5738 46.4777 20.5738H48.8819C49.229 20.5738 49.5135 20.2924 49.5135 19.9423V8.99959C49.5135 8.66506 49.9512 8.54 50.1294 8.82451L57.1233 20.1361C57.289 20.405 57.5861 20.5707 57.9018 20.5707H60.6C61.0158 20.5707 61.3503 20.233 61.3503 19.8203V12.8983C61.3503 12.5513 61.6317 12.2668 61.9819 12.2668H68.832C69.179 12.2668 69.4635 11.9854 69.4635 11.6352V9.5905C69.4635 9.24346 69.1822 8.95895 68.832 8.95895H61.9819C61.6348 8.95895 61.3503 8.67757 61.3503 8.3274V4.96331C61.3503 4.61627 61.6317 4.33176 61.9819 4.33176H73.406C73.7531 4.33176 74.0376 4.61314 74.0376 4.96331V19.936C74.0376 20.283 74.319 20.5676 74.6691 20.5676H77.3548C77.7018 20.5676 77.9863 20.2862 77.9863 19.936V4.96331C77.9863 4.61627 78.2677 4.33176 78.6179 4.33176H83.3701H87.2188H93.0122C93.3592 4.33176 93.6437 4.61314 93.6437 4.96331V8.62754C93.6437 8.91205 93.4124 9.14341 93.1279 9.14341H87.8504C87.5033 9.14341 87.2188 9.42479 87.2188 9.77496V11.8197C87.2188 12.1667 87.5002 12.4512 87.8504 12.4512H93.0122C93.3592 12.4512 93.6437 12.7326 93.6437 13.0828V16.6344C93.6437 16.9815 93.3623 17.266 93.0122 17.266H83.7953C83.4483 17.266 83.1638 17.5474 83.1638 17.8975V19.9423C83.1638 20.2893 83.4452 20.5738 83.7953 20.5738H96.3169C96.6639 20.5738 96.9484 20.2924 96.9484 19.9423V1.58359C96.9484 1.28032 96.7045 1.03645 96.4013 1.03645H93.6437H93.6312Z" fill="#85EDC7"/>
<path d="M45.7993 25.7825H53.7368C58.1497 25.7825 59.8243 28.5688 59.8243 31.4259C59.8243 34.2829 58.1469 37.0693 53.7368 37.0693H49.6691V43.3803H45.7993V25.7797V25.7825ZM49.6691 34.0651H52.6761C54.4497 34.0651 56.0791 33.6719 56.0791 31.4287C56.0791 29.1855 54.4525 28.7923 52.6761 28.7923H49.6691V34.068V34.0651Z" fill="#1362FF"/>
<path d="M60.243 34.5573C60.441 31.3042 63.3745 30.2915 66.2315 30.2915C68.7717 30.2915 71.8268 30.8573 71.8268 33.9152V40.5458C71.8268 41.7056 71.9513 42.8625 72.2709 43.3802H68.7208C68.5964 42.987 68.5002 42.5655 68.4747 42.1469C67.3658 43.3067 65.7619 43.7253 64.1863 43.7253C61.7451 43.7253 59.847 42.5174 59.847 39.9037C59.8951 34.1103 68.4747 37.2163 68.3276 34.3564C68.3276 32.877 67.2923 32.6309 66.059 32.6309C64.704 32.6309 63.8638 33.174 63.7422 34.5545H60.243V34.5573ZM68.3276 37.1456C67.7364 37.6633 66.5031 37.6887 65.4197 37.8839C64.3362 38.0819 63.349 38.4751 63.349 39.7566C63.349 41.038 64.3589 41.3831 65.4932 41.3831C68.2286 41.3831 68.3276 39.2389 68.3276 38.4497V37.1428V37.1456Z" fill="#1362FF"/>
<path d="M76.2681 39.2418C76.2681 40.7467 77.6004 41.386 78.9554 41.386C79.9426 41.386 81.2467 40.9928 81.2467 39.7594C81.2467 38.6986 79.7672 38.3054 77.2779 37.7878C75.2327 37.3182 73.2356 36.6534 73.2356 34.3848C73.2356 31.1317 76.0446 30.2944 78.7828 30.2944C81.5211 30.2944 84.132 31.2307 84.4036 34.3621H81.077C80.9779 33.0072 79.9426 32.6366 78.6866 32.6366C77.8974 32.6366 76.7405 32.7611 76.7405 33.819C76.7405 35.075 78.7376 35.2475 80.7092 35.7171C82.7544 36.1867 84.7515 36.925 84.7515 39.2927C84.7515 42.6448 81.8181 43.7282 78.9356 43.7282C76.0531 43.7282 73.0687 42.6193 72.9471 39.2418H76.2737H76.2681Z" fill="#1362FF"/>
<path d="M88.5165 39.2418C88.5165 40.7467 89.8489 41.386 91.2039 41.386C92.1911 41.386 93.4952 40.9928 93.4952 39.7594C93.4952 38.6986 92.0157 38.3054 89.5264 37.7878C87.4812 37.3182 85.4841 36.6534 85.4841 34.3848C85.4841 31.1317 88.2931 30.2944 91.0313 30.2944C93.7696 30.2944 96.3805 31.2307 96.6521 34.3621H93.3254C93.2264 33.0072 92.1911 32.6366 90.9351 32.6366C90.1459 32.6366 88.9889 32.7611 88.9889 33.819C88.9889 35.075 90.986 35.2475 92.9577 35.7171C95.0029 36.1867 97 36.925 97 39.2927C97 42.6448 94.0666 43.7282 91.1841 43.7282C88.3015 43.7282 85.3172 42.6193 85.1956 39.2418H88.5222H88.5165Z" fill="#1362FF"/>
</svg>
