<svg width="32" height="32" viewBox="0 0 32 32" fill="none" xmlns="http://www.w3.org/2000/svg">
<g clip-path="url(#clip0_598_298)">
<path d="M16 32C24.8366 32 32 24.8366 32 16C32 7.16344 24.8366 0 16 0C7.16344 0 0 7.16344 0 16C0 24.8366 7.16344 32 16 32Z" fill="black"/>
<path d="M25.1916 20.6149L22.1729 23.7821C22.1073 23.8509 22.0279 23.9057 21.9397 23.9432C21.8515 23.9807 21.7563 24.0001 21.6601 24H7.35044C7.28216 24 7.21537 23.9805 7.15827 23.9439C7.10117 23.9072 7.05626 23.8551 7.02904 23.7938C7.00183 23.7325 6.9935 23.6648 7.00508 23.599C7.01666 23.5332 7.04764 23.4721 7.09422 23.4232L10.1151 20.256C10.1806 20.1874 10.2597 20.1326 10.3476 20.0952C10.4356 20.0577 10.5304 20.0383 10.6264 20.0381H24.9353C25.0035 20.0381 25.0703 20.0576 25.1275 20.0942C25.1845 20.1309 25.2294 20.183 25.2567 20.2443C25.2839 20.3056 25.2922 20.3733 25.2806 20.4391C25.269 20.5049 25.2381 20.566 25.1916 20.6149ZM22.1729 14.2369C22.1073 14.1681 22.0279 14.1133 21.9397 14.0758C21.8515 14.0383 21.7563 14.019 21.6601 14.0191H7.35044C7.28216 14.0191 7.21537 14.0386 7.15827 14.0752C7.10117 14.1118 7.05626 14.164 7.02904 14.2252C7.00183 14.2865 6.9935 14.3542 7.00508 14.4201C7.01666 14.4859 7.04764 14.547 7.09422 14.5958L10.1151 17.7631C10.1806 17.8317 10.2597 17.8864 10.3476 17.9239C10.4356 17.9614 10.5304 17.9808 10.6264 17.9809H24.9353C25.0035 17.9809 25.0703 17.9614 25.1275 17.9248C25.1845 17.8882 25.2294 17.836 25.2567 17.7748C25.2839 17.7135 25.2922 17.6458 25.2806 17.5799C25.269 17.5141 25.2381 17.453 25.1916 17.4042L22.1729 14.2369ZM7.35044 11.9619H21.6601C21.7563 11.9619 21.8515 11.9426 21.9397 11.9051C22.0279 11.8677 22.1073 11.8128 22.1729 11.744L25.1916 8.57676C25.2381 8.52792 25.269 8.46683 25.2806 8.401C25.2922 8.33517 25.2839 8.26746 25.2567 8.2062C25.2294 8.14493 25.1845 8.09278 25.1275 8.05615C25.0703 8.01952 25.0035 8 24.9353 8H10.6264C10.5304 8.00016 10.4356 8.01958 10.3476 8.05706C10.2597 8.09455 10.1806 8.14929 10.1151 8.21791L7.095 11.3851C7.04846 11.4339 7.01749 11.495 7.00589 11.5607C6.99428 11.6265 7.00255 11.6941 7.02967 11.7554C7.05679 11.8166 7.10158 11.8687 7.15856 11.9054C7.21554 11.9421 7.28223 11.9617 7.35044 11.9619Z" fill="url(#paint0_linear_598_298)"/>
</g>
<defs>
<linearGradient id="paint0_linear_598_298" x1="8.54353" y1="24.3813" x2="23.1829" y2="7.5132" gradientUnits="userSpaceOnUse">
<stop offset="0.08" stop-color="#9945FF"/>
<stop offset="0.3" stop-color="#8752F3"/>
<stop offset="0.5" stop-color="#5497D5"/>
<stop offset="0.6" stop-color="#43B4CA"/>
<stop offset="0.72" stop-color="#28E0B9"/>
<stop offset="0.97" stop-color="#19FB9B"/>
</linearGradient>
<clipPath id="clip0_598_298">
<rect width="32" height="32" fill="white"/>
</clipPath>
</defs>
</svg>
