<svg width="30" height="30" viewBox="0 0 30 30" fill="none" xmlns="http://www.w3.org/2000/svg">
<circle cx="15" cy="15" r="15" fill="#5197CA"/>
<path d="M19.9998 10H16.9998C16.4498 10 15.9998 10.45 15.9998 11C15.9998 11.55 16.4498 12 16.9998 12H19.9998C21.6498 12 22.9998 13.35 22.9998 15C22.9998 16.65 21.6498 18 19.9998 18H16.9998C16.4498 18 15.9998 18.45 15.9998 19C15.9998 19.55 16.4498 20 16.9998 20H19.9998C22.7598 20 24.9998 17.76 24.9998 15C24.9998 12.24 22.7598 10 19.9998 10ZM10.9998 15C10.9998 15.55 11.4498 16 11.9998 16H17.9998C18.5498 16 18.9998 15.55 18.9998 15C18.9998 14.45 18.5498 14 17.9998 14H11.9998C11.4498 14 10.9998 14.45 10.9998 15ZM12.9998 18H9.99976C8.34976 18 6.99976 16.65 6.99976 15C6.99976 13.35 8.34976 12 9.99976 12H12.9998C13.5498 12 13.9998 11.55 13.9998 11C13.9998 10.45 13.5498 10 12.9998 10H9.99976C7.23976 10 4.99976 12.24 4.99976 15C4.99976 17.76 7.23976 20 9.99976 20H12.9998C13.5498 20 13.9998 19.55 13.9998 19C13.9998 18.45 13.5498 18 12.9998 18Z" fill="white"/>
</svg>
