<svg width="30" height="30" viewBox="0 0 30 30" fill="none" xmlns="http://www.w3.org/2000/svg">
<path d="M6.20232 14.2047C6.20235 14.0382 6.23529 13.8732 6.29924 13.7194C6.36319 13.5656 6.4569 13.4259 6.57498 13.3084C6.69306 13.1909 6.83319 13.0978 6.98732 13.0346C7.14145 12.9714 7.30655 12.9393 7.47314 12.9401L9.58002 12.947C9.91596 12.947 10.2381 13.0804 10.4757 13.3179C10.7132 13.5555 10.8467 13.8777 10.8467 14.2136V22.1808C11.084 22.1105 11.3876 22.0355 11.7218 21.9568C11.9534 21.9023 12.1597 21.7712 12.3074 21.5848C12.4551 21.3984 12.5355 21.1675 12.5355 20.9297V11.0476C12.5355 10.7117 12.669 10.3895 12.9065 10.1519C13.144 9.9143 13.4662 9.78079 13.8022 9.78073H15.9154C16.2514 9.78079 16.5736 9.9143 16.8111 10.1519C17.0486 10.3895 17.1821 10.7117 17.1821 11.0476V20.2197C17.1821 20.2197 17.7108 20.0058 18.2254 19.7884C18.4167 19.7075 18.5799 19.5721 18.6947 19.3991C18.8095 19.2261 18.8708 19.0231 18.8709 18.8154V7.88089C18.8709 7.545 19.0043 7.22287 19.2418 6.98533C19.4793 6.7478 19.8014 6.61432 20.1373 6.61425H22.2484C22.5841 6.61458 22.906 6.74818 23.1432 6.98568C23.3805 7.22319 23.5138 7.54517 23.5138 7.88089V16.8851C25.344 15.5587 27.1989 13.9633 28.6708 12.045C28.8844 11.7665 29.0257 11.4396 29.0822 11.0932C29.1386 10.7469 29.1085 10.3919 28.9944 10.0601C28.3131 8.09978 27.23 6.30331 25.8145 4.78562C24.399 3.26793 22.6822 2.06245 20.7741 1.24632C18.866 0.430185 16.8085 0.0213696 14.7333 0.0460362C12.6581 0.0707028 10.6109 0.528306 8.7227 1.38956C6.8345 2.25082 5.1469 3.49677 3.76786 5.04767C2.38883 6.59858 1.34874 8.42029 0.714155 10.3962C0.0795685 12.3722 -0.135541 14.4588 0.082591 16.5227C0.300723 18.5865 0.947293 20.5821 1.98093 22.3817C2.16101 22.6922 2.42595 22.9448 2.74463 23.1099C3.0633 23.2749 3.42247 23.3457 3.77994 23.3137C4.17929 23.2785 4.6765 23.2288 5.26765 23.1595C5.52493 23.1302 5.76246 23.0073 5.93499 22.8143C6.10753 22.6212 6.20303 22.3714 6.2033 22.1124V14.2047" fill="#21325B"/>
<path d="M6.15723 26.982C8.38244 28.6009 11.0121 29.5725 13.7553 29.7896C16.4985 30.0066 19.2482 29.4606 21.7003 28.2118C24.1524 26.9631 26.2113 25.0603 27.6491 22.7141C29.0869 20.3679 29.8477 17.6696 29.8471 14.9179C29.8471 14.5736 29.8312 14.2347 29.8083 13.8969C24.3584 22.0252 14.2956 25.8251 6.15723 26.982Z" fill="#979695"/>
</svg>
