<svg width="30" height="30" viewBox="0 0 30 30" fill="none" xmlns="http://www.w3.org/2000/svg">
<circle cx="15.0002" cy="15" r="15" fill="black"/>
<path d="M10.721 7.6875L4.31274 14.0156L14.9876 24.5625L25.6625 14.0198L19.2542 7.6875H10.721Z" fill="#2DE370"/>
<path d="M10.4223 11.7977C12.9427 9.29147 17.0325 9.29147 19.5529 11.7977L21.7325 13.9613L19.5529 16.125C17.0325 18.6312 12.9427 18.6312 10.4223 16.125L8.24268 13.9613L10.4223 11.7977Z" fill="#121619"/>
<path fill-rule="evenodd" clip-rule="evenodd" d="M14.9875 16.6137C13.5148 16.6137 12.3198 15.4567 12.3198 14.0323C12.3198 12.608 13.5148 11.451 14.9875 11.451C16.4602 11.451 17.6552 12.608 17.6552 14.0323C17.6552 15.4567 16.4644 16.6137 14.9875 16.6137Z" fill="white"/>
<path d="M14.9877 15.0766C14.3692 15.0766 13.8643 14.5753 13.8643 13.9613C13.8643 13.3431 14.3692 12.8461 14.9877 12.8461C15.6062 12.8461 16.1112 13.3473 16.1112 13.9613C16.1112 14.5795 15.6104 15.0766 14.9877 15.0766Z" fill="#121619"/>
</svg>
