<svg width="30" height="30" viewBox="0 0 30 30" xmlns="http://www.w3.org/2000/svg">
    <path d="M15 2.8125C12.8959 2.81204 10.8274 3.35635 8.99608 4.39246C7.16472 5.42856 5.63279 6.92115 4.54943 8.72496C3.46606 10.5288 2.86815 12.5823 2.8139 14.6858C2.75965 16.7892 3.2509 18.8709 4.23985 20.7281L2.90977 24.7184C2.7996 25.0487 2.78361 25.4033 2.8636 25.7422C2.94359 26.0811 3.11639 26.3911 3.36264 26.6374C3.6089 26.8836 3.91887 27.0564 4.25781 27.1364C4.59675 27.2164 4.95128 27.2004 5.28165 27.0902L9.27188 25.7602C10.9064 26.6295 12.7174 27.1151 14.5676 27.18C16.4178 27.2449 18.2584 26.8875 19.9498 26.1348C21.6413 25.3822 23.139 24.2541 24.3293 22.8362C25.5196 21.4183 26.3713 19.7478 26.8197 17.9516C27.268 16.1554 27.3013 14.2807 26.917 12.4697C26.5326 10.6588 25.7407 8.95914 24.6014 7.4999C23.4622 6.04066 22.0054 4.86014 20.3418 4.04795C18.6781 3.23577 16.8513 2.81326 15 2.8125ZM9.84376 16.4062C9.56563 16.4062 9.29374 16.3238 9.06249 16.1693C8.83123 16.0147 8.65099 15.7951 8.54455 15.5381C8.43811 15.2812 8.41027 14.9984 8.46453 14.7257C8.51879 14.4529 8.65272 14.2023 8.84939 14.0056C9.04605 13.809 9.29662 13.675 9.56941 13.6208C9.84219 13.5665 10.1249 13.5944 10.3819 13.7008C10.6389 13.8072 10.8585 13.9875 11.013 14.2187C11.1675 14.45 11.25 14.7219 11.25 15C11.25 15.373 11.1018 15.7306 10.8381 15.9944C10.5744 16.2581 10.2167 16.4062 9.84376 16.4062ZM15 16.4062C14.7219 16.4062 14.45 16.3238 14.2187 16.1693C13.9875 16.0147 13.8072 15.7951 13.7008 15.5381C13.5944 15.2812 13.5665 14.9984 13.6208 14.7257C13.675 14.4529 13.809 14.2023 14.0056 14.0056C14.2023 13.809 14.4529 13.675 14.7257 13.6208C14.9984 13.5665 15.2812 13.5944 15.5382 13.7008C15.7951 13.8072 16.0147 13.9875 16.1693 14.2187C16.3238 14.45 16.4063 14.7219 16.4063 15C16.4063 15.373 16.2581 15.7306 15.9944 15.9944C15.7306 16.2581 15.373 16.4062 15 16.4062ZM20.1563 16.4062C19.8781 16.4062 19.6062 16.3238 19.375 16.1693C19.1437 16.0147 18.9635 15.7951 18.8571 15.5381C18.7506 15.2812 18.7228 14.9984 18.777 14.7257C18.8313 14.4529 18.9652 14.2023 19.1619 14.0056C19.3586 13.809 19.6091 13.675 19.8819 13.6208C20.1547 13.5665 20.4374 13.5944 20.6944 13.7008C20.9514 13.8072 21.171 13.9875 21.3255 14.2187C21.48 14.45 21.5625 14.7219 21.5625 15C21.5625 15.373 21.4143 15.7306 21.1506 15.9944C20.8869 16.2581 20.5292 16.4062 20.1563 16.4062Z" fill="#757575"/>
</svg>
