<svg width="30" height="30" viewBox="0 0 30 30" fill="none" xmlns="http://www.w3.org/2000/svg">
<g clip-path="url(#clip0_14_148)">
<path d="M30.0002 15C30.0002 23.2838 23.2841 30 15.0002 30C6.71643 30 0.000244141 23.2838 0.000244141 15C0.000244141 6.71619 6.71643 0 15.0002 0C23.2858 0 30.0002 6.71619 30.0002 15Z" fill="#2081E2"/>
<path d="M7.40083 15.504L7.46554 15.4023L11.3676 9.29798C11.4247 9.20858 11.5587 9.2178 11.6018 9.31493C12.2537 10.7759 12.8162 12.5929 12.5528 13.724C12.4403 14.1895 12.132 14.8198 11.7853 15.4023C11.7406 15.4871 11.6912 15.5703 11.6389 15.6504C11.6142 15.6874 11.5726 15.709 11.5279 15.709H7.51487C7.40698 15.709 7.3438 15.5918 7.40083 15.504Z" fill="white"/>
<path d="M24.7939 16.6383V17.6046C24.7939 17.66 24.7599 17.7094 24.7106 17.7309C24.4086 17.8603 23.3745 18.335 22.9445 18.933C21.8473 20.4602 21.0089 22.644 19.1349 22.644H11.3168C8.54597 22.644 6.30054 20.3909 6.30054 17.6108V17.5213C6.30054 17.4474 6.36063 17.3873 6.43461 17.3873H10.7929C10.8791 17.3873 10.9424 17.4674 10.9346 17.5522C10.9038 17.8358 10.9562 18.1255 11.0903 18.389C11.3492 18.9146 11.8855 19.2428 12.4649 19.2428H14.6225V17.5583H12.4896C12.3802 17.5583 12.3155 17.4319 12.3787 17.3426C12.4018 17.3071 12.428 17.2702 12.4557 17.2285C12.6576 16.9419 12.9458 16.4965 13.2325 15.9895C13.4282 15.6474 13.6177 15.2822 13.7703 14.9153C13.8011 14.8491 13.8257 14.7812 13.8504 14.715C13.892 14.5979 13.9352 14.4884 13.966 14.379C13.9969 14.2865 14.0215 14.1895 14.0462 14.0985C14.1186 13.7873 14.1494 13.4574 14.1494 13.1153C14.1494 12.9812 14.1433 12.841 14.1309 12.707C14.1248 12.5606 14.1062 12.4141 14.0878 12.2677C14.0754 12.1382 14.0523 12.0104 14.0276 11.8763C13.9969 11.6805 13.9537 11.4864 13.9043 11.2907L13.8874 11.2167C13.8504 11.0826 13.8196 10.9546 13.7765 10.8206C13.6547 10.3999 13.5145 9.98992 13.3665 9.60623C13.3126 9.4536 13.2509 9.3072 13.1893 9.1608C13.0984 8.94045 13.0059 8.74012 12.9212 8.55052C12.878 8.4642 12.841 8.3856 12.804 8.3055C12.7624 8.2146 12.7193 8.12363 12.6761 8.03738C12.6453 7.97108 12.6098 7.90943 12.5852 7.84778L12.3217 7.3608C12.2846 7.29453 12.3463 7.21593 12.4187 7.23597L14.0678 7.68285H14.0723C14.0754 7.68285 14.077 7.68443 14.0785 7.68443L14.2958 7.7445L14.5347 7.81238L14.6225 7.83697V6.85686C14.6225 6.38373 15.0017 6 15.4702 6C15.7044 6 15.917 6.09555 16.0697 6.25119C16.2222 6.40686 16.3178 6.61953 16.3178 6.85686V8.31165L16.4935 8.361C16.5073 8.36565 16.5212 8.3718 16.5335 8.38102C16.5767 8.41335 16.6383 8.46113 16.7169 8.5197C16.7786 8.56905 16.8448 8.62912 16.925 8.69077C17.0837 8.81865 17.2733 8.98357 17.4813 9.17317C17.5367 9.22095 17.5907 9.27022 17.64 9.31957C17.9082 9.56925 18.2087 9.86205 18.4954 10.1857C18.5755 10.2766 18.6541 10.369 18.7342 10.4661C18.8144 10.5648 18.8991 10.6618 18.9731 10.759C19.0702 10.8884 19.175 11.0224 19.2659 11.1627C19.3091 11.229 19.3583 11.2968 19.4 11.3631C19.5171 11.5402 19.6204 11.7237 19.719 11.9071C19.7606 11.9918 19.8038 12.0843 19.8407 12.1752C19.9502 12.4203 20.0365 12.6699 20.0919 12.9196C20.1089 12.9735 20.1212 13.0321 20.1274 13.0845V13.0968C20.1458 13.1708 20.1521 13.2493 20.1582 13.3295C20.1829 13.5853 20.1705 13.8412 20.1151 14.0985C20.0919 14.208 20.0611 14.3112 20.0241 14.4206C19.9871 14.5254 19.9502 14.6348 19.9024 14.7381C19.8099 14.9523 19.7005 15.1665 19.571 15.3669C19.5294 15.4409 19.4801 15.5195 19.4308 15.5934C19.3769 15.672 19.3214 15.7459 19.2721 15.8184C19.2043 15.9109 19.1318 16.008 19.0579 16.0942C18.9916 16.1852 18.9238 16.2761 18.8498 16.3563C18.7466 16.478 18.6479 16.5936 18.5447 16.7046C18.483 16.777 18.4168 16.851 18.3489 16.9172C18.2827 16.9912 18.2149 17.0575 18.1532 17.1191C18.05 17.2224 17.9636 17.3025 17.8912 17.3688L17.7217 17.5244C17.6971 17.546 17.6647 17.5583 17.6308 17.5583H16.3178V19.2428H17.9698C18.3397 19.2428 18.6911 19.1118 18.9746 18.8714C19.0717 18.7866 19.4955 18.4198 19.9964 17.8666C20.0133 17.8481 20.0349 17.8342 20.0596 17.828L24.6228 16.5089C24.7076 16.4842 24.7939 16.5489 24.7939 16.6383Z" fill="white"/>
</g>
<defs>
<clipPath id="clip0_14_148">
<rect width="30" height="30" fill="white" transform="translate(0.000244141)"/>
</clipPath>
</defs>
</svg>
